<svg xmlns="http://www.w3.org/2000/svg" fill="none" viewBox="0 0 48 48">
  <path fill="#fff" d="M30.5503 14.865c2.9963-1.2446 6.6253 1.4275 9.2504 5.0357 2.6251 3.6081 4.8893 10.3956 4.8893 14.4587H25.8858s3.9219-5.9142 1.0877-8.7484"/>
  <g stroke="#1D1D1B" stroke-linecap="round" stroke-linejoin="round" stroke-miterlimit="10">
    <path d="M30.5503 14.865c2.9963-1.2446 6.6253 1.4275 9.2504 5.0357 2.6251 3.6081 4.8893 10.3956 4.8893 14.4587H25.8858s3.9219-5.9142 1.0877-8.7484"/>
    <path fill="#1D1D1B" d="M32.459 19.629c.5459 0 .9883-.4822.9883-1.0772 0-.5949-.4424-1.0772-.9883-1.0772-.5458 0-.9883.4823-.9883 1.0772 0 .595.4425 1.0772.9883 1.0772z"/>
    <path fill="#fff" d="M30.5503 14.8651c-11.9226-3.2473-21.97835.2458-25.30935 2.1283-3.4565 1.9557-3.82777 4.6279-2.60414 8.2883 1.63674-1.6576 4.59647-2.374 9.14069-2.0028 7.6607.6275 10.929 2.9911 15.196 2.3323 1.7152-.8472 3.2683-2.7297 3.5768-3.6448-.4916-1.2027-.8262-5.7992 0-7.1013z"/>
    <path d="M2.63672 25.2765c.97263-4.1729 6.10771-4.7324 12.77498-4.7951 6.6254-.0628 15.1385 1.4798 15.1385 1.4798"/>
    <path d="M30.5503 14.8652c5.2815.8733 8.4713 7.6504 8.1366 11.1539-.4549 4.8423-2.5466 7.5928-4.6017 8.3354"/>
    <path d="M3.8291 17.9715c3.32577-2.8918 7.3627-2.7244 7.9275-.9308.5124 1.6419-.5334 3.3048-3.35718 3.9428"/>
    <path d="M29.0756 14.499c-1.2498 2.0394-1.208 5.5639-.3138 7.2006-2.3793.2353-1.9296 3.2003-4.9677 3.9324"/>
  </g>
</svg>
