<svg xmlns="http://www.w3.org/2000/svg" fill="none" viewBox="0 0 48 48">
  <path fill="#fff" d="M10.4785 18.7685c2.6105-4.5487 8.8408-7.5 16.2045-4.6394 7.3636 2.8607 14.0112 11.3463 16.5935 20.1379l-24.5154-.0623c-.7217-4.5148-3.0841-9.1371-7.4933-12.8078"/>
  <path stroke="#1D1D1B" stroke-linecap="round" stroke-linejoin="round" stroke-miterlimit="10" d="M10.4785 18.7685c2.6105-4.5487 8.8408-7.5 16.2045-4.6394 7.3636 2.8607 14.0112 11.3463 16.5935 20.1379l-24.5154-.0623c-.7217-4.5148-3.0841-9.1371-7.4933-12.8078"/>
  <path fill="#1D1D1B" stroke="#1D1D1B" stroke-linecap="round" stroke-linejoin="round" stroke-miterlimit="10" d="M20.3117 19.9637c.6103 0 1.1051-.5351 1.1051-1.1952s-.4948-1.1953-1.1051-1.1953c-.6104 0-1.1052.5352-1.1052 1.1953s.4948 1.1952 1.1052 1.1952z"/>
  <path fill="#fff" stroke="#1D1D1B" stroke-linecap="round" stroke-linejoin="round" stroke-miterlimit="10" d="M13.0157 21.2042c-.4342.0679 3.3886-1.5012 3.3886-1.5012l-5.9259-.9403c-1.97902.1586-4.91095.946-6.4784 1.8977-.00563 0 5.89204 1.0309 9.0157.5438z"/>
  <path stroke="#1D1D1B" stroke-linecap="round" stroke-linejoin="round" stroke-miterlimit="10" d="M18.5187 32.9585c-.4567-2.2376.4341-4.6167 4.5896-5.1662 3.5859-.4758 5.3225-1.6428 6.8167-4.9113-1.9058 2.4075-6.3375 3.92-10.7184 2.4812-3.5578-1.167-6.1909-4.1522-6.1909-4.1522"/>
</svg>
