<svg xmlns="http://www.w3.org/2000/svg" fill="none" viewBox="0 0 48 48">
  <path fill="#fff" d="M11.577 29.6049c.3726 2.9022 1.4488 6.6523 1.4488 6.6523l26.651-.1258c-1.174-6.5032-4.6911-15.5034-8.5017-19.4258-4.0156-4.1274-9.48-5.7811-14.6462-3.9876-3.9224 1.3649-5.3665 5.2594-5.278 7.4442"/>
  <path stroke="#1D1D1B" stroke-linecap="round" stroke-linejoin="round" stroke-miterlimit="10" d="M11.577 29.6049c.3726 2.9022 1.4488 6.6523 1.4488 6.6523l26.651-.1258c-1.174-6.5032-4.6911-15.5034-8.5017-19.4258-4.0156-4.1274-9.48-5.7811-14.6462-3.9876-3.9224 1.3649-5.3665 5.2594-5.278 7.4442"/>
  <path fill="#1D1D1B" stroke="#1D1D1B" stroke-linejoin="round" stroke-miterlimit="10" d="M19.7479 21.094c.7178 0 1.2997-.5819 1.2997-1.2997 0-.7178-.5819-1.2997-1.2997-1.2997-.7178 0-1.2997.5819-1.2997 1.2997 0 .7178.5819 1.2997 1.2997 1.2997z"/>
  <path fill="#fff" d="M16.119 22.3142c-1.6538 4.9007-6.75947 6.4426-5.6181 9.5964-2.38518-2.0451-1.77492-7.202.7546-10.6259"/>
  <g stroke="#1D1D1B">
    <path stroke-linecap="round" stroke-linejoin="round" stroke-miterlimit="10" d="M16.119 22.3142c-1.6538 4.9007-6.75947 6.4426-5.6181 9.5964-2.38518-2.0451-1.77492-7.202.7546-10.6259"/>
    <path stroke-linejoin="round" stroke-miterlimit="10" d="M20.1253 25.2724c3.2609.3681 6.396 1.6724 6.1212 3.9038-.382 3.0746-3.438 2.3712-6.2703-.6335-1.5886-1.6864-1.6584-3.4752.1491-3.2703z"/>
    <path stroke-linejoin="round" stroke-miterlimit="10" d="M20.1392 31.0072c.6242.3727 2.0497 2.0357.5264 2.7718-1.5233.736-1.9938-1.2112-1.8727-2.2873.0932-.8292.6895-.8805 1.3463-.4845z"/>
    <path stroke-linecap="round" stroke-linejoin="round" stroke-miterlimit="10" d="M14.8425 23.5255c1.4814-.3401 1.5186-1.5559 1.1087-2.5342-.4099-.9829-1.7888-2.1941-3.4519-1.7097-1.2159.3541-1.6165 1.2671-1.0761 2.469.4332.9783 1.3603 2.25 3.4193 1.7749z"/>
  </g>
  <mask id="grani2" fill="#fff">
    <path d="M14.0111 20.2625c.0181-.2102-.2645-.4061-.6311-.4374-.3666-.0314-.6784.1136-.6964.3238-.018.2102.2646.4061.6312.4374.3666.0314.6783-.1136.6963-.3238z"/>
  </mask>
  <path fill="#000" d="M14.0111 20.2625c.0181-.2102-.2645-.4061-.6311-.4374-.3666-.0314-.6784.1136-.6964.3238-.018.2102.2646.4061.6312.4374.3666.0314.6783-.1136.6963-.3238z"/>
  <path mask="url(#grani2)" fill="#1D1D1B" d="M13.2946 20.8215c.0415.0035.029.0143-.0245-.0228-.0274-.019-.2901-.2164-.2554-.6215l1.9928.1705c.0528-.6152-.3422-1.0157-.598-1.193-.282-.1954-.619-.2982-.9441-.326l-.1708 1.9928zm-.2799-.6443c.0347-.405.3272-.5549.3574-.569.0591-.0275.0695-.0147.028-.0183l-.1707 1.9928c.3251.0278.6747-.0163.9859-.161.2822-.1312.7395-.4588.7922-1.074l-1.9928-.1705zm.3854-.5873c-.0414-.0035-.029-.0143.0246.0228.0273.019.29.2164.2553.6215l-1.9928-.1705c-.0527.6152.3422 1.0157.598 1.193.282.1954.6191.2982.9442.326l.1707-1.9928zm.2799.6443c-.0347.405-.3271.5549-.3573.569-.0591.0275-.0695.0147-.0281.0183l.1708-1.9928c-.3252-.0278-.6748.0163-.9859.161-.2822.1312-.7396.4588-.7923 1.074l1.9928.1705z" />
  <path stroke="#1D1D1B" stroke-linecap="round" stroke-linejoin="round" stroke-miterlimit="10" d="M11.1856 28.9758c2.1941 1.7889 3.7454-2.5202 4.3883-5.115"/>
</svg>
