<svg xmlns="http://www.w3.org/2000/svg" fill="none" viewBox="0 0 48 48">
  <path fill="#fff" d="M12.0085 28.9795c1.8548 1.8274 2.9375 6.6517 2.9375 6.6517L41 35.5124c-1.6126-6.3091-6.9121-15.044-11.7455-18.8541-5.0939-4.0111-10.4801-5.4364-15.5419-3.6913-4.13907 1.4208-5.57814 5.7426-4.62333 7.6248"/>
  <path stroke="#1D1D1B" stroke-linejoin="round" stroke-miterlimit="10" d="M12.0085 28.9795c1.8548 1.8274 2.9375 6.6517 2.9375 6.6517L41 35.5124c-1.6126-6.3091-6.9121-15.044-11.7455-18.8541-5.0939-4.0111-10.4801-5.4364-15.5419-3.6913-4.13907 1.4208-5.57814 5.7426-4.62333 7.6248l.66754-.5275 1.83779 1.3784 1.3784 2.7568-.4594 2.7567-.5051 2.0233z"/>
  <path fill="#1D1D1B" stroke="#1D1D1B" stroke-linejoin="round" stroke-miterlimit="10" d="M17.4313 20.9158c.7014 0 1.27-.5645 1.27-1.2609 0-.6963-.5686-1.2609-1.27-1.2609s-1.27.5646-1.27 1.2609c0 .6964.5686 1.2609 1.27 1.2609z"/>
  <path fill="#fff" d="M12.0085 28.9795c-.7949-.3107-1.5669-1.2153-1.8867-2.0376 1.27.3792 2.4898-1.0325 2.54-2.604"/>
  <path stroke="#1D1D1B" stroke-linejoin="round" stroke-miterlimit="10" d="M12.0085 28.9795c-.7949-.3107-1.5669-1.2153-1.8867-2.0376 1.27.3792 2.4898-1.0325 2.54-2.604"/>
  <path fill="#fff" d="M13.242 23.9313c-1.6492 1.7588-3.75986 1.535-4.23042 1.905-.43857.3427-.40659 2.6132.46599 4.468-3.03347-1.5579-3.7096-7.1223.41573-10.4161 1.8228 1.4802 2.371 1.5167 3.3487 4.0431-.1645 1.6583-.3244 4.0157-1.2335 5.0481l1.2335-5.0481z"/>
  <g stroke="#1D1D1B" stroke-linejoin="round" stroke-miterlimit="10">
    <path d="M13.242 23.9313c-1.6492 1.7588-3.75986 1.535-4.23042 1.905-.43857.3427-.40659 2.6132.46599 4.468-3.03347-1.5579-3.7096-7.1223.41573-10.4161 1.8228 1.4802 2.371 1.5167 3.3487 4.0431zm0 0c-.1645 1.6583-.3244 4.0157-1.2335 5.0481"/>
    <path d="M19.6561 12.1445c2.138 4.0888-8.0817 10.4664.6532 12.6273 5.6284 1.3888 10.3842 4.2075 10.7085 10.3476"/>
    <path d="M13.8542 32.1407c2.3071 2.6862 7.6522 2.6314 10.5212-5.6695"/>
  </g>
</svg>
