<svg xmlns="http://www.w3.org/2000/svg" fill="none" viewBox="0 0 48 48">
  <path fill="#fff" d="M13.7831 26.3118c.4587.849.9467 1.947 1.2639 3.1913.7612 2.9717.405 5.475.405 5.475h23.2468c-2.8742-7.4611-2.3764-13.629-8.3394-18.2549-5.963-4.6259-15.0636-3.0352-18.0158 2.3374"/>
  <g stroke="#1D1D1B" stroke-linejoin="round" stroke-miterlimit="10">
    <path d="M13.7831 26.3118c.4587.849.9467 1.947 1.2639 3.1913.7612 2.9717.405 5.475.405 5.475h23.2468c-2.8742-7.4611-2.3764-13.629-8.3394-18.2549-5.963-4.6259-15.0636-3.0352-18.0158 2.3374"/>
    <path fill="#fff" d="M13.7831 26.3117c1.6396-1.01 3.2255-2.7131 3.1523-4.3624-1.0638-1.4444-4.5967-2.0397-4.5967-2.0397s.2147-.1317 0-.8491C11.0456 19.4607 6.89786 20.988 6 22.3934c2.04946 1.0247 5.719 2.4886 7.7831 3.9183z"/>
    <path d="M16.9353 21.9491c-5.0358-.4733-10.43274.405-10.43274.405"/>
    <path fill="#1D1D1B" d="M19.5948 21.0809c.698 0 1.2638-.5658 1.2638-1.2638 0-.698-.5658-1.2639-1.2638-1.2639-.698 0-1.2639.5659-1.2639 1.2639 0 .698.5659 1.2638 1.2639 1.2638z"/>
  </g>
</svg>
