<svg xmlns="http://www.w3.org/2000/svg" fill="none" viewBox="0 0 48 48">
  <g stroke="#1D1D1B" stroke-linejoin="round" stroke-miterlimit="10">
    <path fill="#fff" d="M18.1626 30.9419c1.5215-2.7547.2049-9.4746.2049-9.4746-.8145-4.6269-4.5695-7.3816-4.5695-7.3816 1.1167-1.4311 3.8165-3.165 8.5243-3.0829 4.0982.0718 7.2949 1.5594 10.3532 4.4064 2.172 2.0211 4.7847 6.1556 6.4957 11.0134C40.4211 29.9672 41 37 41 37H21.3439s.0717-1.1029-.1332-2.8624c-.205-1.7646-1.7264-3.1957-3.0481-3.1957z"/>
    <path fill="#fff" d="M18.3675 21.4675c-1.8289-.3283-3.3503.3283-4.6669 1.5441-1.3165 1.2157-1.9262 1.3234-2.6382.8823-.7121-.4412-1.33195.6155-1.3217 2.2006.01536 1.5851-1.11677 2.6418-1.11677 2.6418C7.65572 27.3974 7 26.0945 7 22.6781c0-4.7295 4.4671-8.4844 6.8031-8.5922-.0051 0 3.7499 2.7547 4.5644 7.3816z"/>
    <path fill="#fff" d="M18.1626 30.9418c-4.7694-.5489-6.296-3.5241-6.5982-4.8475 2.2335 1.8723 4.9742-3.083 6.8031-4.627 0 0 1.3165 6.7199-.2049 9.4745z"/>
    <path fill="#1D1D1B" d="M21.2055 19.3692c.7413 0 1.3422-.6522 1.3422-1.4568 0-.8046-.6009-1.4568-1.3422-1.4568-.7412 0-1.3422.6522-1.3422 1.4568 0 .8046.601 1.4568 1.3422 1.4568z"/>
    <path d="M36.3024 20.2056c.6096 2.3134.7326 7.6996-3.3196 10.5158-5.0767 3.5241-12.7506.8105-14.0979-3.1599"/>
    <path d="M18.8952 25.2276c0 .5437.3176-2.7341 3.6525-3.8165 3.335-1.0823 3.0788-6.566 3.0788-6.566s-.8811-.7592-3.8779-.4514c-2.9969.3078-5.7837 1.8672-7.9506-.3078"/>
  </g>
</svg>
