<svg xmlns="http://www.w3.org/2000/svg" fill="none" viewBox="0 0 48 48">
  <g stroke="#1D1D1B" stroke-linejoin="round" stroke-miterlimit="10" >
    <path fill="#fff" d="M11.844 23.4195c-.924-.8018-2.1-1.8551-3.396-1.6396-1.116.1795-5.088.8497-4.836.8019 0 0 5.184-3.6983 5.412-4.0574.696-1.113-.264-1.5678-1.224-3.7222-.96-2.1543-.12-2.1902-1.764-5.11053-.792-1.41228-1.344-3.15968-.948-4.03338 2.484 2.76472 4.932 5.49351 7.368 8.19841 2.316-1.1729 4.584-2.3219 6.828-3.4828.204-.1077.348-.3591.468-.57451.348-.61039.624-1.26866 1.02-1.85512 1.776-2.63307 5.184-2.89638 7.104-1.57984.54.37102 1.08 1.16094 1.08 1.16094l2.88.78992s-1.584.96945-2.28 1.34048c-1.14.62233-1.548 1.47213-1.416 2.81263.612 6.2954-2.316 11.2504-8.508 12.3156-4.728.8856-6.864-.5626-7.788-1.3645z"/>
    <path d="M15.828 28.6859l-1.236-3.8299"/>
    <path d="M17.46 24.856l1.092 3.6982"/>
  </g>
  <path fill="#1D1D1B" d="M32.976 12.7198l1.716 2.5972c1.332.0359 2.388 1.125 2.388 2.4535 0 .7421-.336 1.4123-.864 1.8671-.18.1556-.084 1.125.48 1.9389.348.4907.552 1.149.684 1.7235.012.0598.024.1077.036.1675l-1.032.8737-2.388-1.7115-1.872 1.7474-.996-.9694c.024-.1077.036-.2274.06-.3351.192-1.0174.396-2.0347.504-2.3219 1.092-2.8007.516-3.6145.636-3.9137l-1.812-1.7474 1.884.4069c.048.012.096.0239.144.0239.228 0 .42-.1795.42-.4189v-2.3817h.012zm0-1.1969c-.12 0-.228.012-.348.0479-.504.1556-.852.6224-.852 1.149v1.4003l-.996-.2154c-.084-.012-.168-.024-.252-.024-.432 0-.852.2394-1.056.6344-.252.4667-.156 1.0532.228 1.4242l1.464 1.4003c.048.395.108 1.1969-.576 2.9563-.096.2393-.228.7181-.564 2.5373l-.06.3112c-.072.3949.048.8258.336 1.1011l.996.9694c.228.2274.528.3351.84.3351.3 0 .588-.1077.816-.3231l1.152-1.0772 1.584 1.137c.204.1556.456.2274.696.2274.276 0 .552-.0957.78-.2872l1.032-.8737c.336-.2873.48-.7301.396-1.149l-.036-.1915c-.204-.8737-.492-1.5918-.864-2.1423-.18-.2514-.276-.5267-.312-.7182.588-.6582.912-1.52.912-2.4056 0-1.7594-1.224-3.2196-2.892-3.5666l-1.416-2.1185c-.228-.3351-.612-.5386-1.008-.5386z"/>
  <path fill="#fff" d="M32.976 12.7197l1.716 2.5972c1.332.0359 2.388 1.125 2.388 2.4535 0 .7421-.336 1.4123-.864 1.8671-.18.1556-.084 1.1251.48 1.9389.348.4907.552 1.149.684 1.7235.012.0598.024.1077.036.1675l-1.032.8737-2.388-1.7115-1.872 1.7474-.996-.9694c.024-.1077.036-.2274.06-.3351.192-1.0173.396-2.0347.504-2.3219 1.092-2.8006.516-3.6145.636-3.9137l-1.812-1.7474 1.884.4069c.048.012.096.024.144.024.228 0 .42-.1796.42-.4189v-2.3818h.012z"/>
  <path fill="#fff" d="M29.64 29.3319c-.564-1.2687-.936-2.8725-1.092-4.7515l-.012-.1197 1.44-1.0413h.288l1.872 1.8073 1.872-1.7474 2.388 1.7115 2.076-1.7714 1.596 1.2567-.012.1197c-.132 1.3764-.372 2.5972-.72 3.6384"/>
  <g stroke-linejoin="round" stroke-miterlimit="10">
    <path stroke="#1D1D1B" d="M29.64 29.3319c-.564-1.2687-.936-2.8725-1.092-4.7515l-.012-.1197 1.44-1.0413h.288l1.872 1.8073 1.872-1.7474 2.388 1.7115 2.076-1.7714 1.596 1.2567-.012.1197c-.132 1.3764-.372 2.5972-.72 3.6384"/>
    <path fill="#fff" stroke="#1D1D1B" d="M39.468 36.3577c2.472-2.4416 4.644-5.1585 4.932-8.5336 0 0-8.7 2.1184-21.06 1.7354 1.02-.4667 2.616-2.657 2.616-2.657-1.284.3591-4.68 1.3764-7.404 1.6517-2.724.2753-6.288.0359-7.992-.4548-2.592-1.0054-3.816-2.4895-3.804-2.3578.06.8617.612 3.1357.768 4.0214.036.3112-2.976-.2753-2.928-.1556 2.628 5.8526 7.848 10.7836 15.06 12.2917 3.708.7779 9.108.6104 12.792-.2633 3.18-.754 7.224-2.2501 9.24-4.5959.072-.0599-2.532-.3711-2.22-.6822z"/>
  </g>
  <g fill="#1D1D1B">
    <path d="M24.336 35.2326c-.156-.0718-.252-.2154-.228-.371.012-.0957.072-.1915.156-.2513.096-.0599.204-.0958.324-.0838 1.224.1077 2.268.1436 3.3.1077.552-.0239 1.104-.0479 1.656-.0957l.372-.024c.432-.0359.852-.0598 1.248-.1316.924-.1436 1.944-.3591 3.216-.6942 1.008-.2753 2.088-.5865 3.108-1.0293.18-.0718.396-.0359.528.0958.156.1555.132.3949-.048.5266-.936.6822-2.04 1.1489-3.084 1.5559-1.2.4308-2.304.742-3.396.9455-1.284.2035-2.424.2753-3.6.2154-1.368-.0598-2.556-.3112-3.552-.766z"/>
    <path d="M10.656 31.5821c.072-.1915.324-.2992.552-.2394 1.164.3232 2.184.5386 3.204.6702.54.0719 1.092.1437 1.644.1915l.372.036c.432.0478.84.0837 1.248.0837.936.024 1.98-.0239 3.312-.1316 1.056-.0958 2.184-.2155 3.288-.4668.192-.0479.396.0239.492.1795.06.0838.072.1915.036.2873-.036.0957-.108.1675-.204.2274-1.08.5146-2.268.7779-3.396.9934-1.284.2154-2.436.3351-3.552.3471-.492-.012-.972-.036-1.428-.0719-.744-.0718-1.452-.1795-2.148-.3351-1.32-.2992-2.424-.766-3.288-1.3764-.132-.0957-.18-.2513-.132-.3949z"/>
    <path d="M14.268 35.5198c.108-.024.228-.012.336.0359 1.08.5146 2.028.8976 2.988 1.1968.516.1676 1.032.3232 1.56.4668l.36.0958c.408.1196.804.2274 1.2.2872.912.1795 1.956.3112 3.276.4309 1.056.0837 2.196.1556 3.324.0957.204 0 .384.0958.444.2633.072.1915-.06.407-.288.4668-1.176.3231-2.4.383-3.552.4069-1.308 0-2.46-.0838-3.564-.2513-1.272-.2394-2.352-.5506-3.408-.9934-1.212-.5266-2.184-1.1609-2.892-1.903-.108-.1197-.132-.2872-.048-.4189.06-.0838.156-.1556.264-.1795z"/>
    <path d="M24.84 9.54816c.4706 0 .852-.38045.852-.84976 0-.46932-.3814-.84977-.852-.84977-.4705 0-.852.38045-.852.84977 0 .46931.3815.84976.852.84976z"/>
    <path d="M34.464 17.7225c.4705 0 .852-.3805.852-.8498s-.3815-.8498-.852-.8498-.852.3805-.852.8498.3815.8498.852.8498z"/>
  </g>
</svg>
