<svg xmlns="http://www.w3.org/2000/svg" fill="none" viewBox="0 0 48 48">
  <circle cx="24" cy="24" r="15" fill="#fff"/>
  <g fill="#1D1D1B">
    <path d="M39.9712 23.0303c-.0922-1.469-.3861-2.9264-.8759-4.3205l-1.0142.3572c.4552 1.3019.7318 2.6614.8183 4.0324.1383 2.2178-.219 4.3953-1.0546 6.4749-1.4868 3.6983-4.3278 6.5959-7.9986 8.157-3.665 1.5612-7.722 1.6015-11.4216.1152-7.6356-3.0761-11.34672-11.7804-8.2695-19.4132 3.0716-7.6328 11.7847-11.34262 19.4145-8.2722 2.2763.9159 4.2759 2.3734 5.8434 4.234l-3.5268-.4723-.1152.8525 5.1114.6798.3112-5.1442-.8586-.0519-.2017 3.3239c-1.6654-1.9356-3.7746-3.4564-6.1661-4.4184-3.9589-1.59569-8.3097-1.5496-12.2399.12673-3.9301 1.67637-6.9728 4.78127-8.5691 8.74457-3.29625 8.1801.68576 17.5123 8.8688 20.8073 1.9305.7777 3.9532 1.1637 5.9759 1.1637 2.1264 0 4.2528-.4321 6.2698-1.2904 3.9301-1.6763 6.9728-4.7813 8.5691-8.7446.8932-2.2236 1.2735-4.5624 1.1294-6.9415z"/>
    <path d="M16.102 26.9079c-.8529 0-1.2678-.4262-1.4004-1.0945l-2.1033.4954c.3861 1.6937 1.7057 2.4368 3.3827 2.4368 1.8498 0 3.3942-.9332 3.3942-2.8227 0-1.0945-.6397-2.0508-1.7692-2.1948v-.0403c1.0373-.2132 1.6136-1.0254 1.6136-2.0623 0-1.8089-1.5041-2.6211-3.181-2.6211-1.5963 0-2.9447.6279-3.3597 2.2639l2.1956.4551c.121-.4954.5475-.8814 1.1756-.8814.6512-.0057 1.1698.409 1.1698.9793 0 .8929-.7837 1.0542-1.5213 1.0542h-.6512v1.7282h.4668c.8932 0 1.8671.0288 1.8671 1.0945 0 .7028-.4149 1.2097-1.2793 1.2097z"/>
    <path d="M23.651 19.1601l-2.063 3.2201c-.5993.9448-1.1295 1.7685-1.1295 3.128 0 1.9471 1.5444 3.2375 3.5152 3.2375 1.9709 0 3.5153-1.2904 3.5153-3.2375 0-1.7166-1.1872-3.0761-2.9563-3.0761-.2247 0-.438.0403-.6512.0921l2.2129-3.3699H23.651v.0058zm.3227 4.7928c.8932 0 1.5156.6279 1.5156 1.4805 0 .8525-.6281 1.4804-1.5156 1.4804-.8874 0-1.5213-.6279-1.5213-1.4804 0-.8526.6281-1.4805 1.5213-1.4805z"/>
    <path d="M31.7534 26.9887c-.6915 0-1.1871-.4551-1.2908-1.1291l-2.0919.4782c.4149 1.5957 1.556 2.4079 3.181 2.4079 2.0631 0 3.5959-1.2385 3.5959-3.37 0-1.9298-1.36-3.1164-3.2616-3.1164-.3573 0-.6109.0288-.8414.1037l.0404-1.4517h3.7457v-1.757h-5.6993l-.1095 5.2076c.6281-.2132 1.3081-.3457 1.9593-.3457 1.0373 0 2.1726.3169 2.1726 1.5554 0 .818-.5475 1.4171-1.4004 1.4171z"/>
  </g>
</svg>
