<svg viewBox="0 0 48 48" fill="none" xmlns="http://www.w3.org/2000/svg">
  <mask id="life3" mask-type="alpha" maskUnits="userSpaceOnUse" x="0" y="0" width="48" height="48">
    <path d="M40.5184 0H28.3619H7.48162H0V7.17757V25.1673V40.8133C0 44.7683 3.36626 48 7.48162 48H21.8001H40.5184H48V35.1097V12.872V7.17757C48.0095 3.23174 44.6337 0 40.5184 0Z" fill="#838B95"/>
  </mask>
  <g mask="url(#life3)">
    <g fill="white" stroke="#1D1D1B" stroke-miterlimit="10" stroke-linejoin="round">
      <path d="M22.2171 20.2241L17.7519 24.4975L7.08209 13.2798L11.5404 9.00635L22.2171 20.2241Z"/>
      <path d="M24.3334 25.7644L23.1623 26.8876L19.1833 23.1209L20.7722 21.6074L24.3334 25.7644Z"/>
      <path d="M10.1364 10.3554L8.48596 11.9306L5.70551 9.01313L7.35597 7.43799L10.1364 10.3554Z"/>
    </g>
    <g stroke="#1D1D1B" stroke-miterlimit="10" stroke-linejoin="round">
      <path d="M4.20581 10.4515L8.85589 6" />
      <path d="M13.6088 11.1772L12.0953 12.6223" />
      <path d="M15.7796 13.458L14.2729 14.9099" />
      <path d="M17.9575 15.7451L16.444 17.1901" />
      <path d="M20.1352 18.0327L18.6217 19.4777" />
    </g>
    <path d="M29.5792 28.8259C29.1409 29.1478 27.3672 27.4973 26.7782 26.2852C26.1892 25.073 26.9631 23.8608 26.8809 23.0527C26.8125 22.3953 26.1755 22.4364 24.7511 22.7651C23.3266 23.0938 23.7854 22.1556 24.9017 21.3885C27.6069 19.4367 30.1202 20.464 31.394 21.5666" fill="white"/>
    <g stroke="#1D1D1B" stroke-miterlimit="10" stroke-linejoin="round">
      <path d="M29.5792 28.8259C29.1409 29.1478 27.3672 27.4973 26.7782 26.2852C26.1892 25.073 26.9631 23.8608 26.8809 23.0527C26.8125 22.3953 26.1755 22.4364 24.7511 22.7651C23.3266 23.0938 23.7854 22.1556 24.9017 21.3885C27.6069 19.4367 30.1202 20.464 31.394 21.5666"/>
      <path d="M39.5505 41.5843C41.6529 38.9408 42.3309 36.4343 42.2487 34.4757C42.1597 32.4348 41.4406 30.0105 40.3449 28.5107C42.598 29.1613 43.9608 28.1751 44.132 27.8875C44.3033 27.5999 43.5979 27.0383 41.7488 26.8534C42.6185 26.7164 45.0292 26.2165 45.1045 25.2098C45.1799 24.203 43.7965 24.8262 41.3858 24.881C42.461 24.792 44.1252 24.1209 45.0018 23.1347C45.6592 22.3882 44.6251 22.0047 43.8992 22.354C43.1664 22.7032 41.3379 23.3949 40.1326 23.0936C38.9272 22.7923 37.3316 22.9155 36.2358 23.4429C35.2291 22.0526 32.5445 22.3403 31.4008 21.5732C31.4008 21.5732 31.7227 26.011 29.2367 29.3051C29.2367 29.3051 25.7098 34.188 23.0321 34.8592C23.8196 35.7084 25.0181 38.3176 22.7513 40.4475C18.8477 44.0977 19.8886 48.9738 19.8886 48.9738H49.3916V41.6186C46.1386 40.3996 42.461 40.7557 39.5505 41.5843Z" fill="white"/>
      <path d="M23.0254 34.859C20.5258 31.4554 21.327 29.079 21.9913 28.0859C22.1283 30.6472 27.1482 29.0516 29.2301 29.2981C29.2301 29.305 25.7032 34.1879 23.0254 34.859Z" fill="white"/>
      <path d="M35.125 30.8324C35.7677 30.2129 35.8248 29.2295 35.2526 28.6358C34.6803 28.0422 33.6954 28.0631 33.0527 28.6826C32.41 29.302 32.3529 30.2855 32.9252 30.8791C33.4974 31.4728 34.4823 31.4518 35.125 30.8324Z" fill="#1D1D1B"/>
    </g>
    <path d="M39.5501 41.5845C36.9682 42.3857 33.544 44.454 31.7566 48.9739" stroke="white" stroke-miterlimit="10" stroke-linejoin="round"/>
  </g>
</svg>
