<svg xmlns="http://www.w3.org/2000/svg" fill="none" viewBox="0 0 48 48">
  <path fill="#fff" d="M10.4169 21.1254c-.85616-2.7709 1.6633-7.6 8.7271-8.8431 6.863-1.2073 12.3317 1.5432 15.3927 6.6178 3.0611 5.0747 5.3202 11.962 5.3202 17.0997H17.154s-.4106-4.0532-2.315-7.2795"/>
  <path stroke="#1D1D1B" stroke-linejoin="round" stroke-miterlimit="10" d="M10.4169 21.1254c-.85616-2.7709 1.6633-7.6 8.7271-8.8431 6.863-1.2073 12.3317 1.5432 15.3927 6.6178 3.0611 5.0747 5.3202 11.962 5.3202 17.0997H17.154s-.4106-4.0532-2.315-7.2795"/>
  <path fill="#fff" d="M15.1587 23.9763c.5766 1.3403.5783 3.5724.2918 4.4523-1.5271.6258-2.8217.2063-3.4472-.8594"/>
  <g stroke-linejoin="round" stroke-miterlimit="10">
    <path stroke="#1D1D1B" d="M15.1587 23.9763c.5766 1.3403.5783 3.5724.2918 4.4523-1.5271.6258-2.8217.2063-3.4472-.8594"/>
    <path fill="#1D1D1B" stroke="#1D1D1B" d="M18.5692 21.4749c.6504 0 1.1776-.5588 1.1776-1.2482 0-.6893-.5272-1.2482-1.1776-1.2482s-1.1776.5589-1.1776 1.2482c0 .6894.5272 1.2482 1.1776 1.2482z"/>
    <path fill="#fff" stroke="#1D1D1B" d="M15.1587 23.9763c-1.5078.8612-3.0506 2.817-3.3878 4.4028-.2114.9959.3582 2.4828.3582 2.4828-2.41113 0-4.90961-5.1377-1.3628-10.2772 0 0 2.8863.9191 4.3924 3.3916z"/>
  </g>
  <g stroke="#1D1D1B" stroke-linejoin="round" stroke-miterlimit="10">
    <path d="M19.448 36c3.4071-4.4557 10.4657-3.6679 15.8418-15.5872"/>
    <path d="M24.777 12.1973c3.8158 1.6881 4.2456 6.6349 3.1554 10.1834-1.092 3.5485-4.8555 6.3416-4.1513 10.4681"/>
    <path d="M28.6994 35.9998s2.7099-1.3403 3.1641-3.8913c.2377-1.3317-.891-4.2169-.891-4.2169 1.0465.3973 3.2375 2.9687 7.8029 1.695"/>
  </g>
</svg>
