<svg xmlns="http://www.w3.org/2000/svg" fill="none" viewBox="0 0 48 48">
  <path fill="#fff" d="M20.6342 22.5659C19.413 21.3863 5.67467 21.0333 2 20.3317c1.7891-.8112 12.5083-.6797 17.4108-.592"/>
  <g stroke="#1D1D1B" stroke-linecap="round" stroke-linejoin="round" stroke-miterlimit="10">
    <path d="M20.6342 22.5659C19.413 21.3863 5.67467 21.0333 2 20.3317c1.7891-.8112 12.5083-.6797 17.4108-.592"/>
    <path fill="#fff" d="M25.5696 32.2567H44.57c-2.4688-4.8082-3.7097-13.4642-10.4781-15.7006-6.4613-2.1355-9.3905 2.5214-14.6789 3.1857 0 3.0739 4.8543 5.5318 6.1566 12.5149z"/>
    <path fill="#1D1D1B" d="M28.6523 23.9273c.574 0 1.0392-.4977 1.0392-1.1116 0-.6139-.4652-1.1116-1.0392-1.1116-.574 0-1.0393.4977-1.0393 1.1116 0 .6139.4653 1.1116 1.0393 1.1116z"/>
    <path d="M21.7217 24.0698c4.3259 2.5258 6.6587 3.405 11.9405 3.9926 5.2818.5876 7.8185 1.8351 7.0643 3.815"/>
  </g>
</svg>
