<svg xmlns="http://www.w3.org/2000/svg" fill="none" viewBox="0 0 48 48">
  <path stroke="#1D1D1B" stroke-linejoin="round" stroke-miterlimit="10" d="M28.3427 21.8206C23.6284 19.6369 10.628 18.3933 4 27.6001"/>
  <path fill="#fff" d="M38.3449 19.5019c1.0991-2.0005 1.234-2.7958-.0193-3.6924-3.6056-2.5692-11.8869-8.2476-18.163-4.6468.2941 1.4702.4869 4.3528-4.8589 6.2471"/>
  <path stroke="#1D1D1B" stroke-linejoin="round" stroke-miterlimit="10" d="M38.3449 19.5019c1.0991-2.0005 1.234-2.7958-.0193-3.6924-3.6056-2.5692-11.8869-8.2476-18.163-4.6468.2941 1.4702.4869 4.3528-4.8589 6.2471"/>
  <path fill="#fff" d="M20.9338 25.7299c4.5938 1.475 7.3414 3.4369 7.5053 6.2279.1639 2.791-.617 5.2349-.617 5.2349h13.7428c2.0776-4.5552 2.1643-10.9663-1.5136-15.5601-2.8103-3.5044-8.9755-7.1293-13.0969-5.3747C18.1236 15.506 8.14549 18.0077 4 27.5954c2.94041-1.8655 11.188-2.7187 16.9338-1.8655 4.8397-1.0219 7.4089-3.9093 7.4089-3.9093 2.3572-1.3256 1.316-5.0951-1.3883-5.5627"/>
  <g stroke="#1D1D1B" stroke-linejoin="round" stroke-miterlimit="10">
    <path d="M20.9338 25.7299c4.5938 1.475 7.3414 3.4369 7.5053 6.2279.1639 2.791-.617 5.2349-.617 5.2349h13.7428c2.0776-4.5552 2.1643-10.9663-1.5136-15.5601-2.8103-3.5044-8.9755-7.1293-13.0969-5.3747C18.1236 15.506 8.14549 18.0077 4 27.5954c2.94041-1.8655 11.188-2.7187 16.9338-1.8655zm0 0c4.8397-1.0219 7.4089-3.9093 7.4089-3.9093 2.3571-1.3256 1.316-5.0951-1.3883-5.5627"/>
    <path d="M27.8221 37.1925c2.8199 0 10.2963-8.2476 11.4146-16.4952"/>
    <path fill="#1D1D1B" d="M32.8063 21.7239c.6496 0 1.1762-.5934 1.1762-1.3256 0-.7321-.5266-1.3255-1.1762-1.3255s-1.1762.5934-1.1762 1.3255c0 .7322.5266 1.3256 1.1762 1.3256z"/>
  </g>
</svg>
